<svg width="50" height="50" viewBox="0 0 50 50" fill="none" xmlns="http://www.w3.org/2000/svg">
<g id="ChartLine">
<path id="Vector" d="M45.3125 40.625C45.3125 41.0394 45.1479 41.4368 44.8549 41.7299C44.5618 42.0229 44.1644 42.1875 43.75 42.1875H6.25C5.8356 42.1875 5.43817 42.0229 5.14515 41.7299C4.85212 41.4368 4.6875 41.0394 4.6875 40.625V9.375C4.6875 8.9606 4.85212 8.56317 5.14515 8.27015C5.43817 7.97712 5.8356 7.8125 6.25 7.8125C6.6644 7.8125 7.06183 7.97712 7.35485 8.27015C7.64788 8.56317 7.8125 8.9606 7.8125 9.375V27.8066L17.7207 19.1406C17.9903 18.9046 18.3329 18.7684 18.6909 18.7549C19.049 18.7414 19.4009 18.8514 19.6875 19.0664L31.1738 27.6816L42.7207 17.5781C42.8721 17.4283 43.0525 17.3109 43.2509 17.2334C43.4494 17.1558 43.6615 17.1196 43.8744 17.127C44.0873 17.1345 44.2965 17.1853 44.489 17.2766C44.6815 17.3678 44.8533 17.4974 44.9939 17.6574C45.1345 17.8175 45.2408 18.0046 45.3065 18.2073C45.3721 18.41 45.3956 18.6239 45.3755 18.836C45.3554 19.0481 45.2921 19.2538 45.1896 19.4405C45.0871 19.6273 44.9474 19.7911 44.7793 19.9219L32.2793 30.8594C32.0097 31.0954 31.6671 31.2316 31.3091 31.2451C30.951 31.2586 30.5991 31.1486 30.3125 30.9336L18.8262 22.3223L7.8125 31.959V39.0625H43.75C44.1644 39.0625 44.5618 39.2271 44.8549 39.5201C45.1479 39.8132 45.3125 40.2106 45.3125 40.625Z" fill="#343330"/>
</g>
</svg>
